<svg width="399" height="456" viewBox="0 0 399 456" fill="none" xmlns="http://www.w3.org/2000/svg">
<path d="M274.356 454.572C274.752 446.942 275.446 436.737 276.238 421.081C278.121 382.934 266.429 349.048 266.429 340.725C266.429 332.402 259.592 327.249 259.592 317.837C259.592 308.424 257.809 286.427 254.539 268.691C251.269 250.955 261.178 228.265 263.655 221.329C266.132 214.493 264.547 209.836 264.547 209.836C266.925 216.474 277.725 240.155 282.877 246.695C288.029 253.234 288.921 265.818 294.371 278.203C299.82 290.589 329.644 329.132 331.824 333.492C333.905 337.851 341.138 360.938 344.903 370.549C348.767 380.16 354.415 397.995 357.586 406.615C360.756 415.136 364.621 418.505 364.522 415.037C364.323 412.065 361.648 395.518 360.856 391.059C360.856 390.96 361.054 390.861 361.054 390.96C362.738 395.419 367.99 408.399 370.268 415.236C371.656 419.397 375.619 423.36 376.114 419.991C376.412 417.713 369.377 391.951 367.99 386.898C367.99 386.799 368.089 386.699 368.188 386.799C370.962 391.753 386.023 419.199 387.608 420.289C388.203 420.685 390.878 419.991 389.392 414.344C386.32 402.949 376.61 380.556 376.61 380.556C376.61 380.556 378.393 383.628 380.87 386.898C383.347 390.267 394.148 404.733 396.426 403.643C398.705 402.553 390.481 387.195 386.617 381.944C383.149 377.188 381.663 369.261 381.465 367.676C381.465 367.576 381.564 367.477 381.663 367.576L385.131 370.549C388.797 373.72 398.606 376.989 397.516 374.71C396.426 372.431 381.465 350.93 376.313 347.264C371.259 343.598 362.342 339.139 353.325 326.655C344.309 314.171 339.652 282.167 335.292 267.403C330.833 252.739 314.286 246.001 311.017 228.959C307.747 211.917 299.325 197.252 299.325 191.406C299.325 185.56 305.864 152.962 294.668 138C283.471 123.039 266.925 127.002 252.458 123.732C237.992 120.463 223.823 102.033 223.13 95.0973C222.436 88.0624 223.823 76.965 224.715 74.0916C225.111 72.8035 225.607 71.02 226.003 69.1374C227.291 63.3906 228.48 56.1575 228.48 56.1575C228.48 56.1575 226.895 62.0034 230.561 62.8952C234.326 63.7869 237.299 55.8603 237.596 47.9336C237.794 40.5024 232.543 38.6198 231.849 38.4216C231.849 38.4216 231.75 38.4216 231.75 38.3225C231.75 37.8271 231.552 34.9537 228.282 21.8747C224.517 7.21036 212.131 0.571777 199.052 0.571777C186.073 0.571777 174.083 7.21036 170.318 21.8747C166.949 35.0528 166.85 37.9262 166.85 38.3225C166.85 38.3225 166.85 38.4216 166.751 38.4216C166.058 38.6198 160.806 40.5024 161.004 47.9336C161.203 55.8603 164.274 63.7869 168.039 62.8952C171.805 62.0034 170.12 56.1575 170.12 56.1575C170.12 56.1575 171.309 63.3906 172.597 69.1374C172.994 71.1191 173.489 72.8035 173.885 74.0916C174.777 76.965 176.263 88.0624 175.471 95.0973C174.777 102.132 160.509 120.463 146.142 123.732C131.676 127.002 115.129 123.039 103.932 138C92.7361 152.962 99.2756 185.56 99.2756 191.406C99.2756 197.252 90.8535 211.917 87.5837 228.959C84.314 246.001 67.7671 252.739 63.3083 267.403C58.8496 282.068 54.1927 314.171 45.2752 326.655C36.3577 339.139 27.3411 343.598 22.2878 347.264C17.2346 350.93 2.17393 372.431 1.08401 374.71C-0.00590694 376.989 9.80334 373.621 13.4694 370.549L16.9373 367.576C17.0364 367.477 17.1355 367.576 17.1355 367.676C16.8383 369.261 15.352 377.188 11.9832 381.944C8.11893 387.195 -0.104992 402.553 2.17392 403.643C4.45284 404.733 15.2529 390.167 17.73 386.898C20.2071 383.529 21.9906 380.556 21.9906 380.556C21.9906 380.556 12.2804 402.85 9.20884 414.344C7.72259 419.991 10.3978 420.685 10.9923 420.289C12.5777 419.199 27.7374 391.753 30.4127 386.799C30.5118 386.699 30.6108 386.799 30.6108 386.898C29.2237 391.951 22.1888 417.613 22.486 419.991C22.9814 423.36 26.9448 419.397 28.3319 415.236C30.6108 408.399 35.8622 395.518 37.5467 390.96C37.5467 390.861 37.7448 390.861 37.7448 391.059C36.9522 395.518 34.1778 412.065 34.0788 415.037C33.8806 418.505 37.8439 415.136 41.0146 406.615C44.1852 398.094 49.833 380.259 53.6973 370.549C57.5615 360.938 64.6955 337.851 66.7762 333.492C68.857 329.132 98.6811 290.589 104.23 278.203C109.679 265.818 110.67 253.234 115.723 246.695C120.876 240.155 131.676 216.474 134.054 209.836C134.054 209.836 132.568 214.493 134.946 221.329C137.423 228.166 147.331 250.955 144.061 268.691C140.791 286.427 139.008 308.424 139.008 317.837C139.008 327.249 132.171 332.303 132.171 340.725C132.171 349.147 120.479 382.934 122.362 421.081C123.155 437.034 124.245 454.076 124.245 454.076H181.019C181.118 453.283 190.531 428.116 192.414 421.081C194.296 414.047 198.755 390.167 198.755 390.167C198.755 390.167 189.739 389.771 181.713 375.899C173.687 362.028 171.805 335.672 153.87 328.339" fill="url(#paint0_linear)" fill-opacity="0.15"/>
<path d="M153.87 328.339C171.805 335.672 173.687 362.028 181.713 375.899C189.739 389.771 198.755 390.167 198.755 390.167C198.755 390.167 194.296 414.047 192.414 421.081C190.531 428.116 181.118 453.283 181.019 454.076H124.245C124.245 454.076 123.155 437.034 122.362 421.081C120.479 382.934 132.171 349.147 132.171 340.725C132.171 332.303 139.008 327.249 139.008 317.837C139.008 308.424 140.791 286.427 144.061 268.691C147.331 250.955 137.423 228.166 134.946 221.329C132.568 214.493 134.054 209.836 134.054 209.836C131.676 216.474 120.876 240.155 115.723 246.695C110.67 253.234 109.679 265.818 104.23 278.203C98.6811 290.589 68.857 329.132 66.7762 333.492C64.6955 337.851 57.5615 360.938 53.6973 370.549C49.833 380.259 44.1853 398.094 41.0146 406.615C37.8439 415.136 33.8806 418.505 34.0788 415.037C34.1778 412.065 36.9522 395.518 37.7448 391.059C37.7448 390.861 37.5467 390.861 37.5467 390.96C35.8622 395.518 30.6108 408.399 28.3319 415.236C26.9448 419.397 22.9814 423.36 22.486 419.991C22.1888 417.613 29.2237 391.951 30.6108 386.898C30.6108 386.799 30.5118 386.7 30.4127 386.799C27.7374 391.753 12.5777 419.199 10.9923 420.289C10.3978 420.685 7.72259 419.991 9.20884 414.344C12.2804 402.85 21.9906 380.556 21.9906 380.556C21.9906 380.556 20.2071 383.529 17.73 386.898C15.2529 390.167 4.45284 404.733 2.17392 403.643C-0.104992 402.553 8.11893 387.195 11.9832 381.944C15.352 377.188 16.8383 369.261 17.1355 367.676C17.1355 367.576 17.0364 367.477 16.9373 367.576L13.4694 370.549C9.80334 373.621 -0.00590689 376.989 1.08401 374.71C2.17393 372.431 17.2346 350.93 22.2878 347.264C27.3411 343.598 36.3577 339.139 45.2752 326.655C54.1927 314.17 58.8496 282.068 63.3083 267.403C67.7671 252.739 84.314 246.001 87.5837 228.959C90.8535 211.917 99.2756 197.252 99.2756 191.406C99.2756 185.56 92.7361 152.962 103.932 138C115.129 123.039 131.676 127.002 146.142 123.732C160.509 120.463 174.777 102.132 175.471 95.0973C176.263 88.0624 174.777 76.965 173.885 74.0916C173.489 72.8035 172.994 71.1191 172.597 69.1374C171.309 63.3906 170.12 56.1575 170.12 56.1575C170.12 56.1575 171.805 62.0034 168.039 62.8952C164.274 63.7869 161.203 55.8603 161.004 47.9336C160.806 40.5024 166.058 38.6198 166.751 38.4216C166.85 38.4216 166.85 38.3225 166.85 38.3225C166.85 37.9262 166.949 35.0528 170.318 21.8747C174.083 7.21036 186.073 0.571777 199.052 0.571777C212.131 0.571777 224.517 7.21036 228.282 21.8747C231.552 34.9537 231.75 37.8271 231.75 38.3225C231.75 38.4216 231.849 38.4216 231.849 38.4216C232.543 38.6198 237.794 40.5024 237.596 47.9336C237.299 55.8603 234.326 63.7869 230.561 62.8952C226.895 62.0034 228.48 56.1575 228.48 56.1575C228.48 56.1575 227.291 63.3906 226.003 69.1374C225.607 71.02 225.111 72.8035 224.715 74.0916C223.823 76.965 222.436 88.0624 223.13 95.0973C223.823 102.033 237.992 120.463 252.458 123.732C266.925 127.002 283.471 123.039 294.668 138C305.864 152.962 299.325 185.56 299.325 191.406C299.325 197.252 307.747 211.917 311.017 228.959C314.286 246.001 330.833 252.739 335.292 267.403C339.652 282.167 344.309 314.17 353.325 326.655C362.342 339.139 371.259 343.598 376.313 347.264C381.465 350.93 396.426 372.431 397.516 374.71C398.606 376.989 388.797 373.72 385.131 370.549L381.663 367.576C381.564 367.477 381.465 367.576 381.465 367.676C381.663 369.261 383.149 377.188 386.617 381.944C390.481 387.195 398.705 402.553 396.426 403.643C394.148 404.733 383.347 390.267 380.87 386.898C378.393 383.628 376.61 380.556 376.61 380.556C376.61 380.556 386.32 402.949 389.392 414.344C390.878 419.991 388.203 420.685 387.608 420.289C386.023 419.199 370.962 391.753 368.188 386.799C368.089 386.7 367.99 386.799 367.99 386.898C369.377 391.951 376.412 417.713 376.114 419.991C375.619 423.36 371.656 419.397 370.268 415.236C367.99 408.399 362.738 395.419 361.054 390.96C361.054 390.861 360.856 390.96 360.856 391.059C361.648 395.518 364.323 412.065 364.522 415.037C364.621 418.505 360.756 415.136 357.586 406.615C354.415 397.995 348.767 380.16 344.903 370.549C341.138 360.938 333.905 337.851 331.824 333.492C329.644 329.132 299.82 290.589 294.371 278.203C288.921 265.818 288.029 253.234 282.877 246.695C277.725 240.155 266.925 216.474 264.547 209.836C264.547 209.836 266.132 214.493 263.655 221.329C261.178 228.265 251.269 250.955 254.539 268.691C257.809 286.427 259.592 308.424 259.592 317.837C259.592 327.249 266.429 332.402 266.429 340.725C266.429 349.048 278.121 382.934 276.238 421.081C275.446 436.737 274.752 446.942 274.356 454.572H246.178H218" stroke="#58DCE3" stroke-miterlimit="10"/>
<path d="M244.532 328.34C226.598 335.672 224.715 362.028 216.689 375.9C208.664 389.772 198.656 390.168 198.656 390.168C198.656 390.168 204.106 414.146 205.988 421.082C207.871 428.117 216.293 447.042 217.68 453.977" fill="url(#paint1_linear)" fill-opacity="0.15"/>
<path d="M244.532 328.34C226.598 335.672 224.715 362.028 216.689 375.9C208.664 389.772 198.656 390.168 198.656 390.168C198.656 390.168 204.106 414.146 205.988 421.082C207.871 428.117 216.293 447.042 217.68 453.977" stroke="#58DCE3" stroke-miterlimit="10"/>
<path d="M137.521 454.175C135.935 438.718 132.963 418.208 131.477 398.59C130.882 390.663 129.297 355.687 129.297 355.687" fill="url(#paint2_linear)" fill-opacity="0.15"/>
<path d="M137.521 454.175C135.935 438.718 132.963 418.208 131.477 398.59C130.882 390.663 129.297 355.687 129.297 355.687" stroke="#58DCE3" stroke-miterlimit="10"/>
<path d="M155.85 454.175C158.427 444.366 161.102 434.458 161.994 425.837C163.777 409.984 142.276 324.97 138.808 315.359" fill="url(#paint3_linear)" fill-opacity="0.15"/>
<path d="M155.85 454.175C158.427 444.366 161.102 434.458 161.994 425.837C163.777 409.984 142.276 324.97 138.808 315.359" stroke="#58DCE3" stroke-miterlimit="10"/>
<path d="M138.808 316.251C138.808 316.251 142.474 315.36 148.221 319.719C153.968 324.079 154.86 332.699 155.95 337.753C157.039 342.806 166.948 382.538 171.902 401.265C176.856 419.992 181.612 451.302 181.612 451.302L180.919 454.175" fill="url(#paint4_linear)" fill-opacity="0.15"/>
<path d="M138.808 316.251C138.808 316.251 142.474 315.36 148.221 319.719C153.968 324.079 154.86 332.699 155.95 337.753C157.039 342.806 166.948 382.538 171.902 401.265C176.856 419.992 181.612 451.302 181.612 451.302L180.919 454.175" stroke="#58DCE3" stroke-miterlimit="10"/>
<path d="M162.195 423.063C162.195 423.063 163.582 442.385 164.672 454.572L162.195 423.063Z" fill="url(#paint5_linear)" fill-opacity="0.15"/>
<path d="M162.195 423.063C162.195 423.063 163.582 442.385 164.672 454.572" stroke="#58DCE3" stroke-miterlimit="10"/>
<path d="M175.768 361.532C175.768 361.532 167.644 373.323 168.238 386.898L175.768 361.532Z" fill="url(#paint6_linear)" fill-opacity="0.15"/>
<path d="M175.768 361.532C175.768 361.532 167.644 373.323 168.238 386.898" stroke="#58DCE3" stroke-miterlimit="10"/>
<path d="M144.062 267.601C144.062 267.601 152.682 268.592 162.194 282.166C164.473 285.337 165.86 289.895 166.851 294.651C168.535 302.677 169.229 311.396 171.21 316.152C174.381 323.781 177.651 343.103 184.686 359.749C190.928 374.71 196.477 370.846 197.467 369.954C197.567 369.855 197.567 369.756 197.567 369.657C197.269 368.963 196.477 365.297 196.179 347.264C195.684 325.367 199.548 294.254 192.91 286.229C189.343 281.968 181.416 281.671 175.768 285.337C170.22 289.003 166.851 294.75 166.851 294.75" fill="url(#paint7_linear)" fill-opacity="0.15"/>
<path d="M144.062 267.601C144.062 267.601 152.682 268.592 162.194 282.166C164.473 285.337 165.86 289.895 166.851 294.651C168.535 302.677 169.229 311.396 171.21 316.152C174.381 323.781 177.651 343.103 184.686 359.749C190.928 374.71 196.477 370.846 197.467 369.954C197.567 369.855 197.567 369.756 197.567 369.657C197.269 368.963 196.477 365.297 196.179 347.264C195.684 325.367 199.548 294.254 192.91 286.229C189.343 281.968 181.416 281.671 175.768 285.337C170.22 289.003 166.851 294.75 166.851 294.75" stroke="#58DCE3" stroke-miterlimit="10"/>
<path d="M16.8354 367.675C16.8354 367.675 21.4924 363.712 25.5548 361.037C30.0135 358.064 34.3732 355.885 35.1659 353.606C36.6521 349.246 35.364 343.598 26.8429 344.193" fill="url(#paint8_linear)" fill-opacity="0.15"/>
<path d="M16.8354 367.675C16.8354 367.675 21.4924 363.712 25.5548 361.037C30.0135 358.064 34.3732 355.885 35.1659 353.606C36.6521 349.246 35.364 343.598 26.8429 344.193" stroke="#58DCE3" stroke-miterlimit="10"/>
<path d="M57.6589 358.857C57.758 358.461 60.7305 351.525 55.6772 345.283C50.5249 338.941 60.7305 318.332 69.0535 303.271C77.4755 288.211 102.643 255.315 103.336 246.001C104.03 236.687 119.19 218.456 124.045 209.836C128.9 201.215 134.548 181.894 132.17 169.013C129.792 156.232 130.089 138 147.527 131.263C164.966 124.525 180.919 126.11 181.612 118.184C182.306 110.257 176 93.0718 176 93.0718" fill="url(#paint9_linear)" fill-opacity="0.15"/>
<path d="M57.6589 358.857C57.758 358.461 60.7305 351.525 55.6772 345.283C50.5249 338.941 60.7305 318.332 69.0535 303.271C77.4755 288.211 102.643 255.315 103.336 246.001C104.03 236.687 119.19 218.456 124.045 209.836C128.9 201.215 134.548 181.894 132.17 169.013C129.792 156.232 130.089 138 147.527 131.263C164.966 124.525 180.919 126.11 181.612 118.184C182.306 110.257 176 93.0718 176 93.0718" stroke="#58DCE3" stroke-miterlimit="10"/>
<path d="M181.711 114.319C181.711 114.319 192.809 124.327 191.025 133.442C189.242 142.558 173.091 145.134 161.201 146.72C149.311 148.305 134.647 153.259 131.278 159.799" fill="url(#paint10_linear)" fill-opacity="0.15"/>
<path d="M181.711 114.319C181.711 114.319 192.809 124.327 191.025 133.442C189.242 142.558 173.091 145.134 161.201 146.72C149.311 148.305 134.647 153.259 131.278 159.799" stroke="#58DCE3" stroke-miterlimit="10"/>
<path d="M188.55 137.901C188.55 137.901 194.099 145.134 194.891 167.725C195.684 190.316 199.152 198.243 177.651 199.432C156.15 200.621 142.179 201.513 139.207 194.775C136.234 188.038 132.766 176.544 132.766 176.544" fill="url(#paint11_linear)" fill-opacity="0.15"/>
<path d="M188.55 137.901C188.55 137.901 194.099 145.134 194.891 167.725C195.684 190.316 199.152 198.243 177.651 199.432C156.15 200.621 142.179 201.513 139.207 194.775C136.234 188.038 132.766 176.544 132.766 176.544" stroke="#58DCE3" stroke-miterlimit="10"/>
<path d="M98.6797 194.379C98.6797 194.379 103.337 183.282 113.344 173.274C123.351 163.267 132.764 147.017 132.764 147.017" fill="url(#paint12_linear)" fill-opacity="0.15"/>
<path d="M98.6797 194.379C98.6797 194.379 103.337 183.282 113.344 173.274C123.351 163.267 132.764 147.017 132.764 147.017" stroke="#58DCE3" stroke-miterlimit="10"/>
<path d="M87.2843 229.95C87.2843 229.95 83.321 245.407 90.3559 248.577C97.3908 251.748 104.723 240.849 104.723 240.849C104.723 240.849 103.336 251.649 108.092 253.135C111.659 254.324 113.343 250.361 113.343 250.361" fill="url(#paint13_linear)" fill-opacity="0.15"/>
<path d="M87.2843 229.95C87.2843 229.95 83.321 245.407 90.3559 248.577C97.3908 251.748 104.723 240.849 104.723 240.849C104.723 240.849 103.336 251.649 108.092 253.135C111.659 254.324 113.343 250.361 113.343 250.361" stroke="#58DCE3" stroke-miterlimit="10"/>
<path d="M182.503 199.135C193.799 196.262 197.96 201.315 197.564 213.601C197.168 225.887 194.889 259.378 195.087 267.502C195.285 275.627 194.79 282.068 181.711 282.86C168.632 283.653 166.551 279.293 166.551 270.475C166.551 268.791 166.551 264.431 166.749 258.684C167.046 247.091 167.938 230.049 170.316 217.961C172.892 204.287 176.558 200.72 182.503 199.135Z" fill="url(#paint14_linear)" fill-opacity="0.15" stroke="#58DCE3" stroke-miterlimit="10"/>
<path d="M166.751 257.495C166.751 257.495 179.632 252.442 194.99 255.91L166.751 257.495Z" fill="url(#paint15_linear)" fill-opacity="0.15"/>
<path d="M166.751 257.495C166.751 257.495 179.632 252.442 194.99 255.91" stroke="#58DCE3" stroke-miterlimit="10"/>
<path d="M168.73 228.86C168.73 228.86 181.611 223.806 196.969 227.274L168.73 228.86Z" fill="url(#paint16_linear)" fill-opacity="0.15"/>
<path d="M168.73 228.86C168.73 228.86 181.611 223.806 196.969 227.274" stroke="#58DCE3" stroke-miterlimit="10"/>
<path d="M167.743 238.966C167.743 238.966 163.779 233.219 157.735 227.473C148.322 218.456 135.045 212.907 135.342 203.494C135.54 196.856 132.766 179.714 132.766 179.714" fill="url(#paint17_linear)" fill-opacity="0.15"/>
<path d="M167.743 238.966C167.743 238.966 163.779 233.219 157.735 227.473C148.322 218.456 135.045 212.907 135.342 203.494C135.54 196.856 132.766 179.714 132.766 179.714" stroke="#58DCE3" stroke-miterlimit="10"/>
<path d="M134.845 221.33C134.845 221.33 143.069 233.22 151.59 238.966C164.173 247.289 166.75 257.99 166.75 258.783" fill="url(#paint18_linear)" fill-opacity="0.15"/>
<path d="M134.845 221.33C134.845 221.33 143.069 233.22 151.59 238.966C164.173 247.289 166.75 257.99 166.75 258.783" stroke="#58DCE3" stroke-miterlimit="10"/>
<path d="M142.477 245.011C142.477 245.011 150.007 253.73 156.051 258.684C162.194 263.738 166.653 274.736 166.653 274.736" fill="url(#paint19_linear)" fill-opacity="0.15"/>
<path d="M142.477 245.011C142.477 245.011 150.007 253.73 156.051 258.684C162.194 263.738 166.653 274.736 166.653 274.736" stroke="#58DCE3" stroke-miterlimit="10"/>
<path d="M141.684 197.55C141.684 197.55 149.115 205.675 157.438 210.034C166.752 214.889 169.526 222.519 169.526 222.519" fill="url(#paint20_linear)" fill-opacity="0.15"/>
<path d="M141.684 197.55C141.684 197.55 149.115 205.675 157.438 210.034C166.752 214.889 169.526 222.519 169.526 222.519" stroke="#58DCE3" stroke-miterlimit="10"/>
<path d="M18.5234 377.98C18.5234 377.98 20.8024 379.863 24.2703 382.043C28.729 385.015 35.1694 388.582 40.619 389.375" fill="url(#paint21_linear)" fill-opacity="0.15"/>
<path d="M18.5234 377.98C18.5234 377.98 20.8024 379.863 24.2703 382.043C28.729 385.015 35.1694 388.582 40.619 389.375" stroke="#58DCE3" stroke-miterlimit="10"/>
<path d="M135.437 205.179L133.852 209.836" stroke="#58DCE3" stroke-miterlimit="10"/>
<path d="M260.781 454.076C262.465 438.817 265.537 417.614 266.924 398.49C267.518 390.564 269.104 355.587 269.104 355.587" fill="url(#paint22_linear)" fill-opacity="0.15"/>
<path d="M260.781 454.076C262.465 438.817 265.537 417.614 266.924 398.49C267.518 390.564 269.104 355.587 269.104 355.587" stroke="#58DCE3" stroke-miterlimit="10"/>
<path d="M242.453 454.175C239.976 444.564 237.201 434.259 236.21 425.837C234.427 409.984 255.928 324.97 259.396 315.359" fill="url(#paint23_linear)" fill-opacity="0.15"/>
<path d="M242.453 454.175C239.976 444.564 237.201 434.259 236.21 425.837C234.427 409.984 255.928 324.97 259.396 315.359" stroke="#58DCE3" stroke-miterlimit="10"/>
<path d="M217.679 454.572L216.886 450.906C216.886 450.906 221.444 419.893 226.398 401.166C231.352 382.439 241.36 342.806 242.351 337.653C243.441 332.6 244.233 323.98 250.079 319.62C255.826 315.261 259.492 316.152 259.492 316.152" fill="url(#paint24_linear)" fill-opacity="0.15"/>
<path d="M217.679 454.572L216.886 450.906C216.886 450.906 221.444 419.893 226.398 401.166C231.352 382.439 241.36 342.806 242.351 337.653C243.441 332.6 244.233 323.98 250.079 319.62C255.826 315.261 259.492 316.152 259.492 316.152" stroke="#58DCE3" stroke-miterlimit="10"/>
<path d="M236.208 423.063C236.208 423.063 234.82 442.087 233.73 454.374L236.208 423.063Z" fill="url(#paint25_linear)" fill-opacity="0.15"/>
<path d="M236.208 423.063C236.208 423.063 234.82 442.087 233.73 454.374" stroke="#58DCE3" stroke-miterlimit="10"/>
<path d="M222.636 361.532C222.636 361.532 230.761 373.323 230.167 386.898L222.636 361.532Z" fill="url(#paint26_linear)" fill-opacity="0.15"/>
<path d="M222.636 361.532C222.636 361.532 230.761 373.323 230.167 386.898" stroke="#58DCE3" stroke-miterlimit="10"/>
<path d="M254.338 267.602C254.338 267.602 245.718 268.592 236.206 282.167C233.927 285.337 232.54 289.895 231.549 294.651C229.865 302.677 229.171 311.396 227.19 316.152C224.019 323.782 220.749 343.103 213.714 359.749C207.472 374.711 201.923 370.747 200.833 369.756C200.734 369.657 200.734 369.558 200.734 369.36C201.032 368.667 201.824 365.1 202.221 347.165C202.716 325.268 198.852 294.156 205.49 286.13C209.057 281.87 216.984 281.572 222.632 285.238C228.18 288.904 231.549 294.651 231.549 294.651" fill="url(#paint27_linear)" fill-opacity="0.15"/>
<path d="M254.338 267.602C254.338 267.602 245.718 268.592 236.206 282.167C233.927 285.337 232.54 289.895 231.549 294.651C229.865 302.677 229.171 311.396 227.19 316.152C224.019 323.782 220.749 343.103 213.714 359.749C207.472 374.711 201.923 370.747 200.833 369.756C200.734 369.657 200.734 369.558 200.734 369.36C201.032 368.667 201.824 365.1 202.221 347.165C202.716 325.268 198.852 294.156 205.49 286.13C209.057 281.87 216.984 281.572 222.632 285.238C228.18 288.904 231.549 294.651 231.549 294.651" stroke="#58DCE3" stroke-miterlimit="10"/>
<path d="M381.467 367.675C381.467 367.675 376.81 363.712 372.748 361.037C368.289 358.064 363.929 355.885 363.137 353.606C361.65 349.246 362.938 343.598 371.46 344.193" fill="url(#paint28_linear)" fill-opacity="0.15"/>
<path d="M381.467 367.675C381.467 367.675 376.81 363.712 372.748 361.037C368.289 358.064 363.929 355.885 363.137 353.606C361.65 349.246 362.938 343.598 371.46 344.193" stroke="#58DCE3" stroke-miterlimit="10"/>
<path d="M340.742 358.857C340.643 358.461 337.671 351.525 342.724 345.283C347.876 338.941 337.671 318.332 329.348 303.272C320.926 288.211 295.758 255.315 295.065 246.001C294.371 236.688 279.212 218.456 274.356 209.836C269.501 201.216 263.854 181.894 266.232 169.014C268.61 156.133 268.312 138.001 250.874 131.263C233.435 124.525 217.384 126.21 216.69 118.283C215.996 110.356 222.5 93.5718 222.5 93.5718" fill="url(#paint29_linear)" fill-opacity="0.15"/>
<path d="M340.742 358.857C340.643 358.461 337.671 351.525 342.724 345.283C347.876 338.942 337.671 318.332 329.348 303.272C320.926 288.211 295.758 255.315 295.065 246.001C294.371 236.688 279.212 218.456 274.356 209.836C269.501 201.216 263.854 181.894 266.232 169.014C268.61 156.133 268.312 138.001 250.874 131.263C233.435 124.525 217.384 126.21 216.69 118.283C215.996 110.356 222.5 93.5718 222.5 93.5718" stroke="#58DCE3" stroke-miterlimit="10"/>
<path d="M216.691 114.319C216.691 114.319 205.594 124.327 207.378 133.442C209.161 142.558 225.312 145.134 237.202 146.72C249.092 148.305 263.756 153.259 267.125 159.799" fill="url(#paint30_linear)" fill-opacity="0.15"/>
<path d="M216.691 114.319C216.691 114.319 205.594 124.327 207.378 133.442C209.161 142.558 225.312 145.134 237.202 146.72C249.092 148.305 263.756 153.259 267.125 159.799" stroke="#58DCE3" stroke-miterlimit="10"/>
<path d="M209.751 137.901C209.751 137.901 204.202 145.134 203.409 167.725C202.617 190.316 199.149 198.243 220.65 199.432C242.151 200.621 256.121 201.513 259.094 194.775C262.166 188.038 265.534 176.544 265.534 176.544" fill="url(#paint31_linear)" fill-opacity="0.15"/>
<path d="M209.751 137.901C209.751 137.901 204.202 145.134 203.409 167.725C202.617 190.316 199.149 198.243 220.65 199.432C242.151 200.621 256.121 201.513 259.094 194.775C262.166 188.038 265.534 176.544 265.534 176.544" stroke="#58DCE3" stroke-miterlimit="10"/>
<path d="M299.721 194.379C299.721 194.379 295.064 183.282 285.057 173.274C275.05 163.267 265.637 147.017 265.637 147.017" fill="url(#paint32_linear)" fill-opacity="0.15"/>
<path d="M299.721 194.379C299.721 194.379 295.064 183.282 285.057 173.274C275.05 163.267 265.637 147.017 265.637 147.017" stroke="#58DCE3" stroke-miterlimit="10"/>
<path d="M311.114 229.95C311.114 229.95 315.077 245.407 308.042 248.577C301.007 251.748 293.675 240.849 293.675 240.849C293.675 240.849 295.062 251.649 290.306 253.135C286.739 254.324 285.055 250.361 285.055 250.361" fill="url(#paint33_linear)" fill-opacity="0.15"/>
<path d="M311.114 229.95C311.114 229.95 315.077 245.407 308.042 248.577C301.007 251.748 293.675 240.849 293.675 240.849C293.675 240.849 295.062 251.649 290.306 253.135C286.739 254.324 285.055 250.361 285.055 250.361" stroke="#58DCE3" stroke-miterlimit="10"/>
<path d="M216.689 83.4058C216.689 83.4058 212.626 91.2333 211.14 94.5031C209.753 97.3765 201.529 126.309 199.647 133.047C199.547 133.443 198.953 133.443 198.854 133.047C196.971 126.309 188.648 97.3765 187.36 94.5031C185.874 91.2333 181.812 83.4058 181.812 83.4058" fill="url(#paint34_linear)" fill-opacity="0.15"/>
<path d="M216.689 83.4058C216.689 83.4058 212.626 91.2333 211.14 94.5031C209.753 97.3765 201.529 126.309 199.647 133.047C199.547 133.443 198.953 133.443 198.854 133.047C196.971 126.309 188.648 97.3765 187.36 94.5031C185.874 91.2333 181.812 83.4058 181.812 83.4058" stroke="#58DCE3" stroke-miterlimit="10"/>
<path d="M224.416 74.8843C224.416 74.8843 214.508 90.044 199.348 90.9358H198.853C183.693 90.1431 173.785 74.8843 173.785 74.8843" fill="url(#paint35_linear)" fill-opacity="0.15"/>
<path d="M224.416 74.8843C224.416 74.8843 214.508 90.044 199.348 90.9358H198.853C183.693 90.1431 173.785 74.8843 173.785 74.8843" stroke="#58DCE3" stroke-miterlimit="10"/>
<path d="M208.661 88.5581C208.661 88.5581 206.184 99.6554 202.716 102.826C199.248 105.997 198.951 105.997 195.483 102.826C192.015 99.6554 189.538 88.5581 189.538 88.5581" fill="url(#paint36_linear)" fill-opacity="0.15"/>
<path d="M208.661 88.5581C208.661 88.5581 206.184 99.6554 202.716 102.826C199.248 105.997 198.951 105.997 195.483 102.826C192.015 99.6554 189.538 88.5581 189.538 88.5581" stroke="#58DCE3" stroke-miterlimit="10"/>
<path d="M215.895 199.135C204.6 196.262 200.438 201.315 200.835 213.601C201.231 225.887 203.51 259.378 203.312 267.502C203.114 275.627 203.609 282.068 216.688 282.86C229.767 283.752 231.848 279.293 231.848 270.475C231.848 268.791 231.848 264.431 231.65 258.684C231.352 247.091 230.461 230.049 228.083 217.961C225.506 204.287 221.741 200.72 215.895 199.135Z" fill="url(#paint37_linear)" fill-opacity="0.15" stroke="#58DCE3" stroke-miterlimit="10"/>
<path d="M231.648 257.495C231.648 257.495 218.767 252.442 203.409 255.91L231.648 257.495Z" fill="url(#paint38_linear)" fill-opacity="0.15"/>
<path d="M231.648 257.495C231.648 257.495 218.767 252.442 203.409 255.91" stroke="#58DCE3" stroke-miterlimit="10"/>
<path d="M229.668 228.86C229.668 228.86 216.788 223.806 201.43 227.274L229.668 228.86Z" fill="url(#paint39_linear)" fill-opacity="0.15"/>
<path d="M229.668 228.86C229.668 228.86 216.788 223.806 201.43 227.274" stroke="#58DCE3" stroke-miterlimit="10"/>
<path d="M230.659 238.966C230.659 238.966 234.623 233.219 240.667 227.473C250.08 218.456 263.357 212.907 263.059 203.494C262.861 196.856 265.636 179.714 265.636 179.714" fill="url(#paint40_linear)" fill-opacity="0.15"/>
<path d="M230.659 238.966C230.659 238.966 234.623 233.219 240.667 227.473C250.08 218.456 263.357 212.907 263.059 203.494C262.861 196.856 265.636 179.714 265.636 179.714" stroke="#58DCE3" stroke-miterlimit="10"/>
<path d="M263.557 221.33C263.557 221.33 255.333 233.22 246.812 238.966C234.228 247.289 231.652 257.99 231.652 258.783" fill="url(#paint41_linear)" fill-opacity="0.15"/>
<path d="M263.557 221.33C263.557 221.33 255.333 233.22 246.812 238.966C234.228 247.289 231.652 257.99 231.652 258.783" stroke="#58DCE3" stroke-miterlimit="10"/>
<path d="M255.829 245.011C255.829 245.011 248.298 253.73 242.254 258.684C236.111 263.738 231.652 274.736 231.652 274.736" fill="url(#paint42_linear)" fill-opacity="0.15"/>
<path d="M255.829 245.011C255.829 245.011 248.298 253.73 242.254 258.684C236.111 263.738 231.652 274.736 231.652 274.736" stroke="#58DCE3" stroke-miterlimit="10"/>
<path d="M256.717 197.55C256.717 197.55 249.286 205.675 240.963 210.034C231.649 214.889 228.875 222.519 228.875 222.519" fill="url(#paint43_linear)" fill-opacity="0.15"/>
<path d="M256.717 197.55C256.717 197.55 249.286 205.675 240.963 210.034C231.649 214.889 228.875 222.519 228.875 222.519" stroke="#58DCE3" stroke-miterlimit="10"/>
<path d="M379.877 377.98C379.877 377.98 377.598 379.863 374.13 382.043C369.671 385.015 363.231 388.582 357.781 389.375" fill="url(#paint44_linear)" fill-opacity="0.15"/>
<path d="M379.877 377.98C379.877 377.98 377.598 379.863 374.13 382.043C369.671 385.015 363.231 388.582 357.781 389.375" stroke="#58DCE3" stroke-miterlimit="10"/>
<path d="M262.961 205.179L264.546 209.836" stroke="#58DCE3" stroke-miterlimit="10"/>
<path d="M217.68 454.076H274.355" stroke="#58DCE3" stroke-miterlimit="10"/>
<defs>
<linearGradient id="paint0_linear" x1="199.3" y1="0.571777" x2="199.3" y2="454.572" gradientUnits="userSpaceOnUse">
<stop offset="0.348958" stop-color="#58DCE3"/>
<stop offset="1" stop-color="#58DCE3" stop-opacity="0"/>
</linearGradient>
<linearGradient id="paint1_linear" x1="221.594" y1="328.34" x2="221.594" y2="453.977" gradientUnits="userSpaceOnUse">
<stop stop-color="#58DCE3"/>
<stop offset="1" stop-color="#58DCE3" stop-opacity="0"/>
</linearGradient>
<linearGradient id="paint2_linear" x1="133.409" y1="355.687" x2="133.409" y2="454.175" gradientUnits="userSpaceOnUse">
<stop stop-color="#58DCE3"/>
<stop offset="1" stop-color="#58DCE3" stop-opacity="0"/>
</linearGradient>
<linearGradient id="paint3_linear" x1="150.453" y1="315.359" x2="150.453" y2="454.175" gradientUnits="userSpaceOnUse">
<stop stop-color="#58DCE3"/>
<stop offset="1" stop-color="#58DCE3" stop-opacity="0"/>
</linearGradient>
<linearGradient id="paint4_linear" x1="160.21" y1="316.176" x2="160.21" y2="454.175" gradientUnits="userSpaceOnUse">
<stop stop-color="#58DCE3"/>
<stop offset="1" stop-color="#58DCE3" stop-opacity="0"/>
</linearGradient>
<linearGradient id="paint5_linear" x1="163.433" y1="423.063" x2="163.433" y2="454.572" gradientUnits="userSpaceOnUse">
<stop stop-color="#58DCE3"/>
<stop offset="1" stop-color="#58DCE3" stop-opacity="0"/>
</linearGradient>
<linearGradient id="paint6_linear" x1="171.988" y1="361.532" x2="171.988" y2="386.898" gradientUnits="userSpaceOnUse">
<stop stop-color="#58DCE3"/>
<stop offset="1" stop-color="#58DCE3" stop-opacity="0"/>
</linearGradient>
<linearGradient id="paint7_linear" x1="170.814" y1="267.601" x2="170.814" y2="371.062" gradientUnits="userSpaceOnUse">
<stop stop-color="#58DCE3"/>
<stop offset="1" stop-color="#58DCE3" stop-opacity="0"/>
</linearGradient>
<linearGradient id="paint8_linear" x1="26.2662" y1="344.149" x2="26.2662" y2="367.675" gradientUnits="userSpaceOnUse">
<stop stop-color="#58DCE3"/>
<stop offset="1" stop-color="#58DCE3" stop-opacity="0"/>
</linearGradient>
<linearGradient id="paint9_linear" x1="117.975" y1="93.0718" x2="117.975" y2="358.857" gradientUnits="userSpaceOnUse">
<stop stop-color="#58DCE3"/>
<stop offset="1" stop-color="#58DCE3" stop-opacity="0"/>
</linearGradient>
<linearGradient id="paint10_linear" x1="161.248" y1="114.319" x2="161.248" y2="159.799" gradientUnits="userSpaceOnUse">
<stop stop-color="#58DCE3"/>
<stop offset="1" stop-color="#58DCE3" stop-opacity="0"/>
</linearGradient>
<linearGradient id="paint11_linear" x1="164.174" y1="137.901" x2="164.174" y2="200.259" gradientUnits="userSpaceOnUse">
<stop stop-color="#58DCE3"/>
<stop offset="1" stop-color="#58DCE3" stop-opacity="0"/>
</linearGradient>
<linearGradient id="paint12_linear" x1="115.722" y1="147.017" x2="115.722" y2="194.379" gradientUnits="userSpaceOnUse">
<stop stop-color="#58DCE3"/>
<stop offset="1" stop-color="#58DCE3" stop-opacity="0"/>
</linearGradient>
<linearGradient id="paint13_linear" x1="99.7576" y1="229.95" x2="99.7576" y2="253.358" gradientUnits="userSpaceOnUse">
<stop stop-color="#58DCE3"/>
<stop offset="1" stop-color="#58DCE3" stop-opacity="0"/>
</linearGradient>
<linearGradient id="paint14_linear" x1="182.07" y1="198.35" x2="182.07" y2="282.952" gradientUnits="userSpaceOnUse">
<stop stop-color="#58DCE3"/>
<stop offset="1" stop-color="#58DCE3" stop-opacity="0"/>
</linearGradient>
<linearGradient id="paint15_linear" x1="180.87" y1="254.694" x2="180.87" y2="257.495" gradientUnits="userSpaceOnUse">
<stop stop-color="#58DCE3"/>
<stop offset="1" stop-color="#58DCE3" stop-opacity="0"/>
</linearGradient>
<linearGradient id="paint16_linear" x1="182.85" y1="226.059" x2="182.85" y2="228.86" gradientUnits="userSpaceOnUse">
<stop stop-color="#58DCE3"/>
<stop offset="1" stop-color="#58DCE3" stop-opacity="0"/>
</linearGradient>
<linearGradient id="paint17_linear" x1="150.254" y1="179.714" x2="150.254" y2="238.966" gradientUnits="userSpaceOnUse">
<stop stop-color="#58DCE3"/>
<stop offset="1" stop-color="#58DCE3" stop-opacity="0"/>
</linearGradient>
<linearGradient id="paint18_linear" x1="150.797" y1="221.33" x2="150.797" y2="258.783" gradientUnits="userSpaceOnUse">
<stop stop-color="#58DCE3"/>
<stop offset="1" stop-color="#58DCE3" stop-opacity="0"/>
</linearGradient>
<linearGradient id="paint19_linear" x1="154.565" y1="245.011" x2="154.565" y2="274.736" gradientUnits="userSpaceOnUse">
<stop stop-color="#58DCE3"/>
<stop offset="1" stop-color="#58DCE3" stop-opacity="0"/>
</linearGradient>
<linearGradient id="paint20_linear" x1="155.605" y1="197.55" x2="155.605" y2="222.519" gradientUnits="userSpaceOnUse">
<stop stop-color="#58DCE3"/>
<stop offset="1" stop-color="#58DCE3" stop-opacity="0"/>
</linearGradient>
<linearGradient id="paint21_linear" x1="29.5712" y1="377.98" x2="29.5712" y2="389.375" gradientUnits="userSpaceOnUse">
<stop stop-color="#58DCE3"/>
<stop offset="1" stop-color="#58DCE3" stop-opacity="0"/>
</linearGradient>
<linearGradient id="paint22_linear" x1="264.942" y1="355.587" x2="264.942" y2="454.076" gradientUnits="userSpaceOnUse">
<stop stop-color="#58DCE3"/>
<stop offset="1" stop-color="#58DCE3" stop-opacity="0"/>
</linearGradient>
<linearGradient id="paint23_linear" x1="247.751" y1="315.359" x2="247.751" y2="454.175" gradientUnits="userSpaceOnUse">
<stop stop-color="#58DCE3"/>
<stop offset="1" stop-color="#58DCE3" stop-opacity="0"/>
</linearGradient>
<linearGradient id="paint24_linear" x1="238.189" y1="316.077" x2="238.189" y2="454.572" gradientUnits="userSpaceOnUse">
<stop stop-color="#58DCE3"/>
<stop offset="1" stop-color="#58DCE3" stop-opacity="0"/>
</linearGradient>
<linearGradient id="paint25_linear" x1="234.969" y1="423.063" x2="234.969" y2="454.374" gradientUnits="userSpaceOnUse">
<stop stop-color="#58DCE3"/>
<stop offset="1" stop-color="#58DCE3" stop-opacity="0"/>
</linearGradient>
<linearGradient id="paint26_linear" x1="226.417" y1="361.532" x2="226.417" y2="386.898" gradientUnits="userSpaceOnUse">
<stop stop-color="#58DCE3"/>
<stop offset="1" stop-color="#58DCE3" stop-opacity="0"/>
</linearGradient>
<linearGradient id="paint27_linear" x1="227.536" y1="267.602" x2="227.536" y2="370.973" gradientUnits="userSpaceOnUse">
<stop stop-color="#58DCE3"/>
<stop offset="1" stop-color="#58DCE3" stop-opacity="0"/>
</linearGradient>
<linearGradient id="paint28_linear" x1="372.036" y1="344.149" x2="372.036" y2="367.675" gradientUnits="userSpaceOnUse">
<stop stop-color="#58DCE3"/>
<stop offset="1" stop-color="#58DCE3" stop-opacity="0"/>
</linearGradient>
<linearGradient id="paint29_linear" x1="280.377" y1="93.5718" x2="280.377" y2="358.857" gradientUnits="userSpaceOnUse">
<stop stop-color="#58DCE3"/>
<stop offset="1" stop-color="#58DCE3" stop-opacity="0"/>
</linearGradient>
<linearGradient id="paint30_linear" x1="237.154" y1="114.319" x2="237.154" y2="159.799" gradientUnits="userSpaceOnUse">
<stop stop-color="#58DCE3"/>
<stop offset="1" stop-color="#58DCE3" stop-opacity="0"/>
</linearGradient>
<linearGradient id="paint31_linear" x1="234.127" y1="137.901" x2="234.127" y2="200.259" gradientUnits="userSpaceOnUse">
<stop stop-color="#58DCE3"/>
<stop offset="1" stop-color="#58DCE3" stop-opacity="0"/>
</linearGradient>
<linearGradient id="paint32_linear" x1="282.679" y1="147.017" x2="282.679" y2="194.379" gradientUnits="userSpaceOnUse">
<stop stop-color="#58DCE3"/>
<stop offset="1" stop-color="#58DCE3" stop-opacity="0"/>
</linearGradient>
<linearGradient id="paint33_linear" x1="298.64" y1="229.95" x2="298.64" y2="253.358" gradientUnits="userSpaceOnUse">
<stop stop-color="#58DCE3"/>
<stop offset="1" stop-color="#58DCE3" stop-opacity="0"/>
</linearGradient>
<linearGradient id="paint34_linear" x1="199.25" y1="83.4058" x2="199.25" y2="133.344" gradientUnits="userSpaceOnUse">
<stop stop-color="#58DCE3"/>
<stop offset="1" stop-color="#58DCE3" stop-opacity="0"/>
</linearGradient>
<linearGradient id="paint35_linear" x1="199.1" y1="74.8843" x2="199.1" y2="90.9358" gradientUnits="userSpaceOnUse">
<stop stop-color="#58DCE3"/>
<stop offset="1" stop-color="#58DCE3" stop-opacity="0"/>
</linearGradient>
<linearGradient id="paint36_linear" x1="199.1" y1="88.5581" x2="199.1" y2="105.204" gradientUnits="userSpaceOnUse">
<stop stop-color="#58DCE3"/>
<stop offset="1" stop-color="#58DCE3" stop-opacity="0"/>
</linearGradient>
<linearGradient id="paint37_linear" x1="216.328" y1="198.35" x2="216.328" y2="282.972" gradientUnits="userSpaceOnUse">
<stop stop-color="#58DCE3"/>
<stop offset="1" stop-color="#58DCE3" stop-opacity="0"/>
</linearGradient>
<linearGradient id="paint38_linear" x1="217.529" y1="254.694" x2="217.529" y2="257.495" gradientUnits="userSpaceOnUse">
<stop stop-color="#58DCE3"/>
<stop offset="1" stop-color="#58DCE3" stop-opacity="0"/>
</linearGradient>
<linearGradient id="paint39_linear" x1="215.549" y1="226.059" x2="215.549" y2="228.86" gradientUnits="userSpaceOnUse">
<stop stop-color="#58DCE3"/>
<stop offset="1" stop-color="#58DCE3" stop-opacity="0"/>
</linearGradient>
<linearGradient id="paint40_linear" x1="248.147" y1="179.714" x2="248.147" y2="238.966" gradientUnits="userSpaceOnUse">
<stop stop-color="#58DCE3"/>
<stop offset="1" stop-color="#58DCE3" stop-opacity="0"/>
</linearGradient>
<linearGradient id="paint41_linear" x1="247.605" y1="221.33" x2="247.605" y2="258.783" gradientUnits="userSpaceOnUse">
<stop stop-color="#58DCE3"/>
<stop offset="1" stop-color="#58DCE3" stop-opacity="0"/>
</linearGradient>
<linearGradient id="paint42_linear" x1="243.741" y1="245.011" x2="243.741" y2="274.736" gradientUnits="userSpaceOnUse">
<stop stop-color="#58DCE3"/>
<stop offset="1" stop-color="#58DCE3" stop-opacity="0"/>
</linearGradient>
<linearGradient id="paint43_linear" x1="242.796" y1="197.55" x2="242.796" y2="222.519" gradientUnits="userSpaceOnUse">
<stop stop-color="#58DCE3"/>
<stop offset="1" stop-color="#58DCE3" stop-opacity="0"/>
</linearGradient>
<linearGradient id="paint44_linear" x1="368.829" y1="377.98" x2="368.829" y2="389.375" gradientUnits="userSpaceOnUse">
<stop stop-color="#58DCE3"/>
<stop offset="1" stop-color="#58DCE3" stop-opacity="0"/>
</linearGradient>
</defs>
</svg>
